# xmcd CD database file
#
# Track frame offsets:
#	150
#	21756
#	40783
#	60555
#	80957
#	99862
#	117147
#	140307
#	158120
#	172657
#	191480
#	212419
#	234438
#
# Disc length: 3386 seconds
#
# Revision: 0
# Processed by: cddbd v1.4PL0 Copyright (c) Steve Scherf et al.
# Submitted via: CD2WAV32(EN) R3.19
#
DISCID=990d380d
DTITLE=Crystal Kay - almost seventeen
DYEAR=1900
DGENRE=
TTITLE0=hard to say
TTITLE1=Missin' U, baby
TTITLE2=Girl U Love
TTITLE3=Shooting star dust
TTITLE4=Boyfriend
TTITLE5=Hide'n'Seek
TTITLE6=You're my fate
TTITLE7=Love of A Lifetime
TTITLE8=Attitude
TTITLE9=move on
TTITLE10=A Song For You
TTITLE11=think of U
TTITLE12=Feel The Same?
EXTD=
EXTT0=
EXTT1=
EXTT2=
EXTT3=
EXTT4=
EXTT5=
EXTT6=
EXTT7=
EXTT8=
EXTT9=
EXTT10=
EXTT11=
EXTT12=
PLAYORDER=
